<?xml version="1.0" encoding="UTF-8" standalone="no"?>
<svg
   width="400"
   height="500"
   viewBox="0 0 400 500"
   version="1.1"
   id="svg11"
   sodipodi:docname="test_shapes.svg"
   inkscape:version="1.4.2 (f4327f4, 2025-05-13)"
   xmlns:inkscape="http://www.inkscape.org/namespaces/inkscape"
   xmlns:sodipodi="http://sodipodi.sourceforge.net/DTD/sodipodi-0.dtd"
   xmlns="http://www.w3.org/2000/svg"
   xmlns:svg="http://www.w3.org/2000/svg">
  <defs
     id="defs11" />
  <sodipodi:namedview
     id="namedview11"
     pagecolor="#ffffff"
     bordercolor="#000000"
     borderopacity="0.25"
     inkscape:showpageshadow="2"
     inkscape:pageopacity="0.0"
     inkscape:pagecheckerboard="0"
     inkscape:deskcolor="#d1d1d1"
     inkscape:zoom="1.614"
     inkscape:cx="199.81413"
     inkscape:cy="250"
     inkscape:window-width="1920"
     inkscape:window-height="1009"
     inkscape:window-x="-8"
     inkscape:window-y="-8"
     inkscape:window-maximized="1"
     inkscape:current-layer="svg11" />
  <!-- Tło -->
  <rect
     x="0"
     y="0"
     width="400"
     height="500"
     fill="white"
     stroke="black"
     stroke-width="1"
     id="rect1" />
  <!-- Rect (Prostokąt) -->
  <rect
     x="20"
     y="20"
     width="100"
     height="60"
     fill="none"
     stroke="black"
     stroke-width="2"
     id="rect2" />
  <!-- Circle (Koło) -->
  <circle
     cx="200"
     cy="50"
     r="40"
     fill="none"
     stroke="black"
     stroke-width="2"
     id="circle2" />
  <!-- Ellipse (Elipsa) -->
  <ellipse
     cx="320"
     cy="50"
     rx="50"
     ry="35"
     fill="none"
     stroke="black"
     stroke-width="2"
     id="ellipse3" />
  <!-- Line (Linia) -->
  <line
     x1="40"
     y1="140"
     x2="120"
     y2="200"
     stroke="black"
     stroke-width="2"
     id="line4" />
  <!-- Polyline (Linia łamana) -->
  <polyline
     points="180,140 220,160 200,200 240,190"
     fill="none"
     stroke="black"
     stroke-width="2"
     id="polyline5" />
  <!-- Polygon (Wielokąt) -->
  <polygon
     points="320,140 360,140 350,190 330,200 310,190"
     fill="none"
     stroke="black"
     stroke-width="2"
     id="polygon6" />
  <!-- Path (Ścieżka) -->
  <path
     d="M 40 250 Q 80 240 120 260 T 200 250"
     fill="none"
     stroke="black"
     stroke-width="2"
     id="path7" />
  <!-- Kwadrat (szczególny przypadek Rect) -->
  <rect
     x="260"
     y="240"
     width="80"
     height="80"
     fill="none"
     stroke="black"
     stroke-width="2"
     id="rect8" />
  <!-- Złożona ścieżka - gwiazda -->
  <path
     d="M 70 380 L 85 420 L 100 380 L 120 400 L 85 410 L 70 450 L 60 410 L 25 400 L 55 380 Z"
     fill="none"
     stroke="black"
     stroke-width="2"
     id="path9" />
  <!-- Zaokrąglony prostokąt -->
  <rect
     x="200"
     y="380"
     width="80"
     height="60"
     rx="10"
     ry="10"
     fill="none"
     stroke="black"
     stroke-width="2"
     id="rect10" />
</svg>
